# This file uses centimeters as units for non-parametric coordinates.

mtllib terrain hill.mtl
g default
v -4.059528 0.000000 1.268048
v 4.059528 0.000000 1.268048
v -3.113576 1.000000 1.268043
v 3.113576 1.000000 1.268043
v -3.113576 1.000000 -1.268043
v 3.113576 1.000000 -1.268043
v -4.059528 0.000000 -1.268048
v 4.059528 0.000000 -1.268048
v -2.550548 1.195705 1.268039
v 2.011985 1.195705 1.268039
v 2.011985 1.195705 -1.268041
v -2.550548 1.195705 -1.268041
v -2.326343 1.771982 1.268038
v 1.634215 1.886699 1.268038
v 1.634215 1.886699 -1.268038
v -2.326343 1.771982 -1.268038
v -2.069519 1.886699 1.268036
v 1.098372 1.956307 1.268036
v 1.098372 1.956307 -1.268036
v -2.069519 1.886699 -1.268036
v -1.601990 2.638332 1.268034
v 0.654618 2.793019 1.268034
v 0.654618 2.793019 -1.268034
v -1.601990 2.638332 -1.268034
v -0.000000 0.000000 1.268048
v -0.000000 0.000000 -1.268048
v -0.000000 1.000000 -1.268043
v -0.269281 1.195705 -1.268041
v -0.346064 1.829340 -1.268038
v -0.485573 1.921503 -1.268036
v -0.700824 3.026028 -1.268034
v -0.700824 3.026028 1.268034
v -0.485573 1.921503 1.268036
v -0.346064 1.829340 1.268038
v -0.269281 1.195705 1.268039
v -0.000000 1.000000 1.268043
vt 0.375000 0.000000
vt 0.625000 0.000000
vt 0.375000 0.250000
vt 0.625000 0.250000
vt 0.375000 0.500000
vt 0.625000 0.500000
vt 0.375000 0.750000
vt 0.625000 0.750000
vt 0.375000 1.000000
vt 0.625000 1.000000
vt 0.875000 0.000000
vt 0.875000 0.250000
vt 0.125000 0.000000
vt 0.125000 0.250000
vt 0.375000 0.250000
vt 0.625000 0.250000
vt 0.625000 0.500000
vt 0.375000 0.500000
vt 0.375000 0.250000
vt 0.625000 0.250000
vt 0.625000 0.500000
vt 0.375000 0.500000
vt 0.375000 0.250000
vt 0.625000 0.250000
vt 0.625000 0.500000
vt 0.375000 0.500000
vt 0.375000 0.250000
vt 0.625000 0.250000
vt 0.625000 0.500000
vt 0.375000 0.500000
vt 0.500000 0.000000
vt 0.500000 1.000000
vt 0.500000 0.750000
vt 0.500000 0.500000
vt 0.500000 0.500000
vt 0.500000 0.500000
vt 0.500000 0.500000
vt 0.500000 0.500000
vt 0.500000 0.250000
vt 0.500000 0.250000
vt 0.500000 0.250000
vt 0.500000 0.250000
vt 0.500000 0.250000
vn 0.000000 0.000005 1.000000
vn 0.000000 0.000005 1.000000
vn 0.000000 0.000005 1.000000
vn 0.000000 0.000005 1.000000
vn -0.068388 0.997659 0.000000
vn -0.068388 0.997659 0.000000
vn 0.169421 0.985544 0.000000
vn 0.169421 0.985544 0.000000
vn 0.000000 0.000005 -1.000000
vn 0.000000 0.000005 -1.000000
vn 0.000000 0.000005 -1.000000
vn 0.000000 0.000005 -1.000000
vn 0.000000 -1.000000 0.000000
vn 0.000000 -1.000000 0.000000
vn 0.000000 -1.000000 0.000000
vn 0.000000 -1.000000 0.000000
vn 0.726466 0.687202 0.000000
vn 0.726466 0.687202 0.000000
vn 0.726466 0.687202 0.000000
vn 0.726466 0.687202 0.000000
vn -0.726466 0.687202 0.000000
vn -0.726466 0.687202 0.000000
vn -0.726466 0.687202 0.000000
vn -0.726466 0.687202 0.000000
vn 0.000000 0.000020 1.000000
vn 0.000000 0.000020 1.000000
vn 0.000000 0.000020 1.000000
vn 0.000000 0.000020 1.000000
vn 0.174918 0.984583 0.000000
vn 0.174918 0.984583 0.000000
vn 0.174918 0.984583 0.000000
vn 0.174918 0.984583 0.000000
vn 0.000000 0.000013 -1.000000
vn 0.000000 0.000013 -1.000000
vn 0.000000 0.000013 -1.000000
vn 0.000000 0.000013 -1.000000
vn -0.328325 0.944565 0.000000
vn -0.328325 0.944565 0.000000
vn -0.328325 0.944565 0.000000
vn -0.328325 0.944565 0.000000
vn -0.000000 0.000001 1.000000
vn -0.000000 0.000001 1.000000
vn -0.000000 0.000001 1.000000
vn -0.000000 0.000001 1.000000
vn 0.877434 0.479698 0.000000
vn 0.877434 0.479698 0.000000
vn 0.877434 0.479698 0.000000
vn 0.877434 0.479698 0.000000
vn -0.000000 0.000003 -1.000000
vn -0.000000 0.000004 -1.000000
vn -0.000000 0.000004 -1.000000
vn -0.000000 0.000003 -1.000000
vn -0.931952 0.362583 0.000000
vn -0.931952 0.362583 0.000000
vn -0.931952 0.362583 0.000000
vn -0.931952 0.362583 0.000000
vn -0.000001 0.000028 1.000000
vn -0.000001 0.000029 1.000000
vn -0.000001 0.000031 1.000000
vn -0.000001 0.000031 1.000000
vn 0.128821 0.991668 0.000000
vn 0.128821 0.991668 0.000000
vn 0.128821 0.991668 0.000000
vn 0.128821 0.991668 0.000000
vn -0.000001 0.000029 -1.000000
vn -0.000001 0.000028 -1.000000
vn -0.000001 0.000027 -1.000000
vn -0.000001 0.000029 -1.000000
vn -0.407839 0.913054 0.000000
vn -0.407839 0.913054 0.000000
vn -0.407839 0.913054 0.000000
vn -0.407839 0.913054 0.000000
vn -0.000000 0.000002 1.000000
vn -0.000000 0.000002 1.000000
vn 0.000000 0.000002 1.000000
vn 0.000000 0.000002 1.000000
vn 0.883443 0.468538 0.000000
vn 0.883443 0.468538 0.000000
vn 0.883443 0.468538 0.000000
vn 0.883443 0.468538 0.000000
vn 0.000000 0.000002 -1.000000
vn -0.000000 0.000002 -1.000000
vn -0.000000 0.000002 -1.000000
vn 0.000000 0.000002 -1.000000
vn -0.849135 0.528176 0.000000
vn -0.849135 0.528176 0.000000
vn -0.849135 0.528176 0.000000
vn -0.849135 0.528176 0.000000
vn 0.000000 -1.000000 0.000000
vn 0.000000 -1.000000 0.000000
vn 0.000000 0.000005 -1.000000
vn 0.000000 0.000005 -1.000000
vn 0.000000 0.000013 -1.000000
vn 0.000000 0.000013 -1.000000
vn -0.000000 0.000004 -1.000000
vn -0.000000 0.000004 -1.000000
vn -0.000001 0.000026 -1.000000
vn -0.000001 0.000026 -1.000000
vn -0.000000 0.000002 -1.000000
vn -0.000000 0.000002 -1.000000
vn -0.395195 0.918597 0.000000
vn -0.395195 0.918597 0.000000
vn -0.000000 0.000002 1.000000
vn -0.000000 0.000002 1.000000
vn -0.000001 0.000027 1.000000
vn -0.000001 0.000027 1.000000
vn 0.000000 0.000001 1.000000
vn 0.000000 0.000001 1.000000
vn 0.000000 0.000020 1.000000
vn 0.000000 0.000020 1.000000
vn 0.000000 0.000005 1.000000
vn 0.000000 0.000005 1.000000
s 1
g pCube1
usemtl initialShadingGroup
f 36/43/1 25/31/2 2/2/3 4/4/4
s 2
f 31/38/5 32/39/6 22/28/7 23/29/8
s 3
f 26/33/9 27/34/10 6/6/11 8/8/12
s 4
f 25/32/13 26/33/14 8/8/15 2/10/16
s off
f 2/2/17 8/11/18 6/12/19 4/4/20
f 7/13/21 1/1/22 3/3/23 5/14/24
s 5
f 35/42/25 36/43/26 4/4/27 10/16/28
s off
f 4/4/29 6/6/30 11/17/31 10/16/32
s 6
f 6/6/33 27/34/34 28/35/35 11/17/36
s off
f 5/5/37 3/3/38 9/15/39 12/18/40
s 7
f 34/41/41 35/42/42 10/16/43 14/20/44
s off
f 10/16/45 11/17/46 15/21/47 14/20/48
s 8
f 11/17/49 28/35/50 29/36/51 15/21/52
s off
f 12/18/53 9/15/54 13/19/55 16/22/56
s 9
f 33/40/57 34/41/58 14/20/59 18/24/60
s off
f 14/20/61 15/21/62 19/25/63 18/24/64
s 10
f 15/21/65 29/36/66 30/37/67 19/25/68
s off
f 16/22/69 13/19/70 17/23/71 20/26/72
s 11
f 32/39/73 33/40/74 18/24/75 22/28/76
s off
f 18/24/77 19/25/78 23/29/79 22/28/80
s 12
f 19/25/81 30/37/82 31/38/83 23/29/84
s off
f 20/26/85 17/23/86 21/27/87 24/30/88
s 4
f 7/7/89 26/33/14 25/32/13 1/9/90
s 3
f 5/5/91 27/34/10 26/33/9 7/7/92
s 6
f 28/35/35 27/34/34 5/5/93 12/18/94
s 8
f 29/36/51 28/35/50 12/18/95 16/22/96
s 10
f 30/37/67 29/36/66 16/22/97 20/26/98
s 12
f 31/38/83 30/37/82 20/26/99 24/30/100
s 2
f 21/27/101 32/39/6 31/38/5 24/30/102
s 11
f 17/23/103 33/40/74 32/39/73 21/27/104
s 9
f 13/19/105 34/41/58 33/40/57 17/23/106
s 7
f 9/15/107 35/42/42 34/41/41 13/19/108
s 5
f 3/3/109 36/43/26 35/42/25 9/15/110
s 1
f 1/1/111 25/31/2 36/43/1 3/3/112
